<?xml version="1.0" ?><svg class="icon icon-tabler icon-tabler-armchair" fill="none" height="24" stroke="currentColor" stroke-linecap="round" stroke-linejoin="round" stroke-width="2" viewBox="0 0 24 24" width="24" xmlns="http://www.w3.org/2000/svg"><path d="M0 0h24v24H0z" fill="none" stroke="none"/><path d="M5 11a2 2 0 0 1 2 2v2h10v-2a2 2 0 1 1 4 0v4a2 2 0 0 1 -2 2h-14a2 2 0 0 1 -2 -2v-4a2 2 0 0 1 2 -2z"/><path d="M5 11v-5a3 3 0 0 1 3 -3h8a3 3 0 0 1 3 3v5"/><path d="M6 19v2"/><path d="M18 19v2"/></svg>